# xmcd
#
# Track frame offsets: 
#        150
#        18184
#        38569
#        52541
#        68862
#        95894
#        111835
#        135332
#        145673
#        166908
#        181323
#        198311
#        214320
#
# Disc length: 3273 seconds
#
# Revision: 3
# Processed by: cddbd v1.5.2PL0 Copyright (c) Steve Scherf et al.
# Submitted via: ExactAudioCopyFreeDBPlugin 1.0
#
DISCID=aa0cc70d
DTITLE=HANS THEESSINK and TERRY EVANS - Visions
DYEAR=2008
DGENRE=Blues
TTITLE0=Going Back Home
TTITLE1=Talk To Your Daughter
TTITLE2=Demons
TTITLE3=Mother Earth
TTITLE4=Got To Keep Moving
TTITLE5=Let The Four Winds Blow
TTITLE6=Vicksburg Is My Home
TTITLE7=Glory Of Love
TTITLE8=Don't Let The Green Grass Fool You
TTITLE9=At The Dark End Of The Street
TTITLE10=You Can't Judge A Book By The Cover
TTITLE11=Trouble In Mind
TTITLE12=Come To The River
EXTD=
EXTT0=
EXTT1=
EXTT2=
EXTT3=
EXTT4=
EXTT5=
EXTT6=
EXTT7=
EXTT8=
EXTT9=
EXTT10=
EXTT11=
EXTT12=
PLAYORDER=
